
        <svg version="1.1" baseProfile="full" width="700" height="700" viewBox="-7.000000000000006 -7.000000000000006 14.000000000000012 14.000000000000012" xmlns="http://www.w3.org/2000/svg">
      <polygon points="0,0,1,0,0,1.7320508075688767" style="fill:rgb(229,22,22);stroke:black;stroke-width:0.05"></polygon>
      <polygon points="0,0,1,0,0.0,-1.7320508075688767" style="fill:rgb(229,133,22);stroke:black;stroke-width:0.05"></polygon>
      <polygon points="1.4999999999999998,0.8660254037844387,1,0,0,1.7320508075688767" style="fill:rgb(229,133,22);stroke:black;stroke-width:0.05"></polygon>
      <polygon points="0,0,-1.0,0.0,0,1.7320508075688767" style="fill:rgb(229,133,22);stroke:black;stroke-width:0.05"></polygon>
      <polygon points="0,0,-1.0,0.0,0.0,-1.7320508075688767" style="fill:rgb(215,229,22);stroke:black;stroke-width:0.05"></polygon>
      <polygon points="-1.4999999999999998,0.8660254037844387,-1.0,0.0,0,1.7320508075688767" style="fill:rgb(215,229,22);stroke:black;stroke-width:0.05"></polygon>
      <polygon points="1.4999999999999998,0.8660254037844387,1,0,2.9999999999999996,6.661338147750939e-16" style="fill:rgb(215,229,22);stroke:black;stroke-width:0.05"></polygon>
      <polygon points="1.4999999999999998,0.8660254037844387,1.9999999999999991,1.7320508075688776,0,1.7320508075688767" style="fill:rgb(215,229,22);stroke:black;stroke-width:0.05"></polygon>
      <polygon points="1.4999999999999998,-0.8660254037844387,1,0,0.0,-1.7320508075688767" style="fill:rgb(215,229,22);stroke:black;stroke-width:0.05"></polygon>
      <polygon points="1.4999999999999998,-0.8660254037844387,1,0,2.9999999999999996,-6.661338147750939e-16" style="fill:rgb(105,229,22);stroke:black;stroke-width:0.05"></polygon>
      <polygon points="1.4999999999999998,-0.8660254037844387,1.9999999999999991,-1.7320508075688776,0.0,-1.7320508075688767" style="fill:rgb(105,229,22);stroke:black;stroke-width:0.05"></polygon>
      <polygon points="1.4999999999999998,0.8660254037844387,1.9999999999999991,1.7320508075688776,3.0000000000000004,1.9984014443252818e-15" style="fill:rgb(105,229,22);stroke:black;stroke-width:0.05"></polygon>
      <polygon points="1.499999999999999,2.598076211353316,1.9999999999999991,1.7320508075688776,0,1.7320508075688767" style="fill:rgb(105,229,22);stroke:black;stroke-width:0.05"></polygon>
      <polygon points="-1.4999999999999998,0.8660254037844387,-1.0,0.0,-2.9999999999999996,6.661338147750939e-16" style="fill:rgb(105,229,22);stroke:black;stroke-width:0.05"></polygon>
      <polygon points="-1.4999999999999998,0.8660254037844387,-1.9999999999999991,1.7320508075688776,0,1.7320508075688767" style="fill:rgb(105,229,22);stroke:black;stroke-width:0.05"></polygon>
      <polygon points="-1.4999999999999998,-0.8660254037844387,-1.0,0.0,0.0,-1.7320508075688767" style="fill:rgb(105,229,22);stroke:black;stroke-width:0.05"></polygon>
      <polygon points="-1.4999999999999998,-0.8660254037844387,-1.0,0.0,-2.9999999999999996,-6.661338147750939e-16" style="fill:rgb(22,229,50);stroke:black;stroke-width:0.05"></polygon>
      <polygon points="-1.4999999999999998,-0.8660254037844387,-1.9999999999999991,-1.7320508075688776,0.0,-1.7320508075688767" style="fill:rgb(22,229,50);stroke:black;stroke-width:0.05"></polygon>
      <polygon points="-1.4999999999999998,0.8660254037844387,-1.9999999999999991,1.7320508075688776,-3.0000000000000004,1.9984014443252818e-15" style="fill:rgb(22,229,50);stroke:black;stroke-width:0.05"></polygon>
      <polygon points="-1.499999999999999,2.598076211353316,-1.9999999999999991,1.7320508075688776,0,1.7320508075688767" style="fill:rgb(22,229,50);stroke:black;stroke-width:0.05"></polygon>
      <polygon points="1.499999999999999,2.598076211353316,1.9999999999999991,1.7320508075688776,2.9999999999999982,3.4641016151377544" style="fill:rgb(22,229,50);stroke:black;stroke-width:0.05"></polygon>
      <polygon points="1.499999999999999,2.598076211353316,0.9999999999999978,3.4641016151377535,0,1.7320508075688767" style="fill:rgb(22,229,50);stroke:black;stroke-width:0.05"></polygon>
      <polygon points="2.999999999999999,1.7320508075688776,1.9999999999999991,1.7320508075688776,3.0000000000000004,1.9984014443252818e-15" style="fill:rgb(22,229,50);stroke:black;stroke-width:0.05"></polygon>
      <polygon points="1.4999999999999998,-0.8660254037844387,1.9999999999999991,-1.7320508075688776,3.0000000000000004,-1.9984014443252818e-15" style="fill:rgb(22,229,50);stroke:black;stroke-width:0.05"></polygon>
      <polygon points="1.499999999999999,-2.598076211353316,1.9999999999999991,-1.7320508075688776,0.0,-1.7320508075688767" style="fill:rgb(22,229,50);stroke:black;stroke-width:0.05"></polygon>
      <polygon points="1.499999999999999,-2.598076211353316,1.9999999999999991,-1.7320508075688776,2.9999999999999982,-3.4641016151377544" style="fill:rgb(22,229,160);stroke:black;stroke-width:0.05"></polygon>
      <polygon points="1.499999999999999,-2.598076211353316,0.9999999999999978,-3.4641016151377535,0.0,-1.7320508075688767" style="fill:rgb(22,229,160);stroke:black;stroke-width:0.05"></polygon>
      <polygon points="2.999999999999999,-1.7320508075688776,1.9999999999999991,-1.7320508075688776,3.0000000000000004,-1.9984014443252818e-15" style="fill:rgb(22,229,160);stroke:black;stroke-width:0.05"></polygon>
      <polygon points="2.999999999999999,1.7320508075688776,1.9999999999999991,1.7320508075688776,3.0000000000000004,3.4641016151377535" style="fill:rgb(22,229,160);stroke:black;stroke-width:0.05"></polygon>
      <polygon points="2.999999999999999,1.7320508075688776,3.999999999999999,1.732050807568879,3.0000000000000004,1.9984014443252818e-15" style="fill:rgb(22,229,160);stroke:black;stroke-width:0.05"></polygon>
      <polygon points="1.499999999999999,2.598076211353316,0.9999999999999978,3.4641016151377535,2.999999999999996,3.464101615137758" style="fill:rgb(22,229,160);stroke:black;stroke-width:0.05"></polygon>
      <polygon points="-1.7763568394002505e-15,3.4641016151377535,0.9999999999999978,3.4641016151377535,0,1.7320508075688767" style="fill:rgb(22,229,160);stroke:black;stroke-width:0.05"></polygon>
      <polygon points="-1.499999999999999,2.598076211353316,-1.9999999999999991,1.7320508075688776,-2.9999999999999982,3.4641016151377544" style="fill:rgb(22,229,160);stroke:black;stroke-width:0.05"></polygon>
      <polygon points="-1.499999999999999,2.598076211353316,-0.9999999999999978,3.4641016151377535,0,1.7320508075688767" style="fill:rgb(22,229,160);stroke:black;stroke-width:0.05"></polygon>
      <polygon points="-2.999999999999999,1.7320508075688776,-1.9999999999999991,1.7320508075688776,-3.0000000000000004,1.9984014443252818e-15" style="fill:rgb(22,229,160);stroke:black;stroke-width:0.05"></polygon>
      <polygon points="-1.4999999999999998,-0.8660254037844387,-1.9999999999999991,-1.7320508075688776,-3.0000000000000004,-1.9984014443252818e-15" style="fill:rgb(22,229,160);stroke:black;stroke-width:0.05"></polygon>
      <polygon points="-1.499999999999999,-2.598076211353316,-1.9999999999999991,-1.7320508075688776,0.0,-1.7320508075688767" style="fill:rgb(22,229,160);stroke:black;stroke-width:0.05"></polygon>
      <polygon points="-1.499999999999999,-2.598076211353316,-1.9999999999999991,-1.7320508075688776,-2.9999999999999982,-3.4641016151377544" style="fill:rgb(22,188,229);stroke:black;stroke-width:0.05"></polygon>
      <polygon points="-1.499999999999999,-2.598076211353316,-0.9999999999999978,-3.4641016151377535,0.0,-1.7320508075688767" style="fill:rgb(22,188,229);stroke:black;stroke-width:0.05"></polygon>
      <polygon points="-2.999999999999999,-1.7320508075688776,-1.9999999999999991,-1.7320508075688776,-3.0000000000000004,-1.9984014443252818e-15" style="fill:rgb(22,188,229);stroke:black;stroke-width:0.05"></polygon>
      <polygon points="-2.999999999999999,1.7320508075688776,-1.9999999999999991,1.7320508075688776,-3.0000000000000004,3.4641016151377535" style="fill:rgb(22,188,229);stroke:black;stroke-width:0.05"></polygon>
      <polygon points="-2.999999999999999,1.7320508075688776,-3.999999999999999,1.732050807568879,-3.0000000000000004,1.9984014443252818e-15" style="fill:rgb(22,188,229);stroke:black;stroke-width:0.05"></polygon>
      <polygon points="-1.499999999999999,2.598076211353316,-0.9999999999999978,3.4641016151377535,-2.999999999999996,3.464101615137758" style="fill:rgb(22,188,229);stroke:black;stroke-width:0.05"></polygon>
      <polygon points="1.7763568394002505e-15,3.4641016151377535,-0.9999999999999978,3.4641016151377535,0,1.7320508075688767" style="fill:rgb(22,188,229);stroke:black;stroke-width:0.05"></polygon>
      <polygon points="-1.7763568394002505e-15,3.4641016151377535,0.9999999999999978,3.4641016151377535,0.0,5.19615242270663" style="fill:rgb(22,188,229);stroke:black;stroke-width:0.05"></polygon>
      <polygon points="1.499999999999995,4.330127018922193,0.9999999999999978,3.4641016151377535,2.999999999999996,3.464101615137758" style="fill:rgb(22,188,229);stroke:black;stroke-width:0.05"></polygon>
      <polygon points="2.999999999999999,1.7320508075688776,3.999999999999999,1.732050807568879,2.999999999999996,3.4641016151377535" style="fill:rgb(22,188,229);stroke:black;stroke-width:0.05"></polygon>
      <polygon points="4.5,0.866025403784441,3.999999999999999,1.732050807568879,3.0000000000000004,1.9984014443252818e-15" style="fill:rgb(22,188,229);stroke:black;stroke-width:0.05"></polygon>
      <polygon points="2.999999999999999,-1.7320508075688776,1.9999999999999991,-1.7320508075688776,3.0000000000000004,-3.4641016151377535" style="fill:rgb(22,188,229);stroke:black;stroke-width:0.05"></polygon>
      <polygon points="2.999999999999999,-1.7320508075688776,3.999999999999999,-1.732050807568879,3.0000000000000004,-1.9984014443252818e-15" style="fill:rgb(22,188,229);stroke:black;stroke-width:0.05"></polygon>
      <polygon points="1.499999999999999,-2.598076211353316,0.9999999999999978,-3.4641016151377535,2.999999999999996,-3.464101615137758" style="fill:rgb(22,188,229);stroke:black;stroke-width:0.05"></polygon>
      <polygon points="-1.7763568394002505e-15,-3.4641016151377535,0.9999999999999978,-3.4641016151377535,0.0,-1.7320508075688767" style="fill:rgb(22,188,229);stroke:black;stroke-width:0.05"></polygon>
      <polygon points="-1.7763568394002505e-15,-3.4641016151377535,0.9999999999999978,-3.4641016151377535,0.0,-5.19615242270663" style="fill:rgb(22,78,229);stroke:black;stroke-width:0.05"></polygon>
      <polygon points="-1.7763568394002505e-15,-3.4641016151377535,-0.9999999999999978,-3.4641016151377535,0.0,-1.7320508075688767" style="fill:rgb(22,78,229);stroke:black;stroke-width:0.05"></polygon>
      <polygon points="1.499999999999995,-4.330127018922193,0.9999999999999978,-3.4641016151377535,2.999999999999996,-3.464101615137758" style="fill:rgb(22,78,229);stroke:black;stroke-width:0.05"></polygon>
      <polygon points="2.999999999999999,-1.7320508075688776,3.999999999999999,-1.732050807568879,2.999999999999996,-3.4641016151377535" style="fill:rgb(22,78,229);stroke:black;stroke-width:0.05"></polygon>
      <polygon points="4.5,-0.866025403784441,3.999999999999999,-1.732050807568879,3.0000000000000004,-1.9984014443252818e-15" style="fill:rgb(22,78,229);stroke:black;stroke-width:0.05"></polygon>
      <polygon points="4.5,0.866025403784441,3.999999999999999,1.732050807568879,5.999999999999998,1.7320508075688825" style="fill:rgb(22,78,229);stroke:black;stroke-width:0.05"></polygon>
      <polygon points="4.5,0.866025403784441,5.000000000000001,3.552713678800501e-15,3.0000000000000004,1.9984014443252818e-15" style="fill:rgb(22,78,229);stroke:black;stroke-width:0.05"></polygon>
      <polygon points="4.499999999999997,2.5980762113533187,3.999999999999999,1.732050807568879,2.999999999999996,3.4641016151377535" style="fill:rgb(22,78,229);stroke:black;stroke-width:0.05"></polygon>
      <polygon points="1.499999999999995,4.330127018922193,0.9999999999999978,3.4641016151377535,-7.105427357601002e-15,5.196152422706626" style="fill:rgb(22,78,229);stroke:black;stroke-width:0.05"></polygon>
      <polygon points="1.499999999999995,4.330127018922193,1.9999999999999933,5.196152422706632,2.999999999999996,3.464101615137758" style="fill:rgb(22,78,229);stroke:black;stroke-width:0.05"></polygon>
      <polygon points="-1.7763568394002505e-15,3.4641016151377535,-0.9999999999999978,3.4641016151377535,0.0,5.19615242270663" style="fill:rgb(22,78,229);stroke:black;stroke-width:0.05"></polygon>
      <polygon points="-1.499999999999995,4.330127018922193,-0.9999999999999978,3.4641016151377535,-2.999999999999996,3.464101615137758" style="fill:rgb(22,78,229);stroke:black;stroke-width:0.05"></polygon>
      <polygon points="-2.999999999999999,1.7320508075688776,-3.999999999999999,1.732050807568879,-2.999999999999996,3.4641016151377535" style="fill:rgb(22,78,229);stroke:black;stroke-width:0.05"></polygon>
      <polygon points="-4.5,0.866025403784441,-3.999999999999999,1.732050807568879,-3.0000000000000004,1.9984014443252818e-15" style="fill:rgb(22,78,229);stroke:black;stroke-width:0.05"></polygon>
      <polygon points="-2.999999999999999,-1.7320508075688776,-1.9999999999999991,-1.7320508075688776,-3.0000000000000004,-3.4641016151377535" style="fill:rgb(22,78,229);stroke:black;stroke-width:0.05"></polygon>
      <polygon points="-2.999999999999999,-1.7320508075688776,-3.999999999999999,-1.732050807568879,-3.0000000000000004,-1.9984014443252818e-15" style="fill:rgb(22,78,229);stroke:black;stroke-width:0.05"></polygon>
      <polygon points="-1.499999999999999,-2.598076211353316,-0.9999999999999978,-3.4641016151377535,-2.999999999999996,-3.464101615137758" style="fill:rgb(22,78,229);stroke:black;stroke-width:0.05"></polygon>
      <polygon points="-1.499999999999995,-4.330127018922193,-0.9999999999999978,-3.4641016151377535,-2.999999999999996,-3.464101615137758" style="fill:rgb(78,22,229);stroke:black;stroke-width:0.05"></polygon>
      <polygon points="-2.999999999999999,-1.7320508075688776,-3.999999999999999,-1.732050807568879,-2.999999999999996,-3.4641016151377535" style="fill:rgb(78,22,229);stroke:black;stroke-width:0.05"></polygon>
      <polygon points="-4.5,-0.866025403784441,-3.999999999999999,-1.732050807568879,-3.0000000000000004,-1.9984014443252818e-15" style="fill:rgb(78,22,229);stroke:black;stroke-width:0.05"></polygon>
      <polygon points="-4.5,0.866025403784441,-3.999999999999999,1.732050807568879,-5.999999999999998,1.7320508075688825" style="fill:rgb(78,22,229);stroke:black;stroke-width:0.05"></polygon>
      <polygon points="-4.5,0.866025403784441,-5.000000000000001,3.552713678800501e-15,-3.0000000000000004,1.9984014443252818e-15" style="fill:rgb(78,22,229);stroke:black;stroke-width:0.05"></polygon>
      <polygon points="-4.499999999999997,2.5980762113533187,-3.999999999999999,1.732050807568879,-2.999999999999996,3.4641016151377535" style="fill:rgb(78,22,229);stroke:black;stroke-width:0.05"></polygon>
      <polygon points="-1.499999999999995,4.330127018922193,-0.9999999999999978,3.4641016151377535,7.105427357601002e-15,5.196152422706626" style="fill:rgb(78,22,229);stroke:black;stroke-width:0.05"></polygon>
      <polygon points="-1.499999999999995,4.330127018922193,-1.9999999999999933,5.196152422706632,-2.999999999999996,3.464101615137758" style="fill:rgb(78,22,229);stroke:black;stroke-width:0.05"></polygon>
      <polygon points="1.499999999999995,4.330127018922193,1.9999999999999933,5.196152422706632,-5.329070518200751e-15,5.196152422706629" style="fill:rgb(78,22,229);stroke:black;stroke-width:0.05"></polygon>
      <polygon points="2.999999999999993,5.196152422706634,1.9999999999999933,5.196152422706632,2.999999999999996,3.464101615137758" style="fill:rgb(78,22,229);stroke:black;stroke-width:0.05"></polygon>
      <polygon points="4.499999999999997,2.5980762113533187,3.999999999999999,1.732050807568879,5.999999999999998,1.732050807568883" style="fill:rgb(78,22,229);stroke:black;stroke-width:0.05"></polygon>
      <polygon points="4.499999999999997,2.5980762113533187,4.999999999999997,3.4641016151377575,2.999999999999996,3.4641016151377535" style="fill:rgb(78,22,229);stroke:black;stroke-width:0.05"></polygon>
      <polygon points="4.5,0.866025403784441,5.000000000000001,3.552713678800501e-15,6.000000000000002,1.7320508075688779" style="fill:rgb(78,22,229);stroke:black;stroke-width:0.05"></polygon>
      <polygon points="4.5,-0.866025403784441,5.000000000000001,3.552713678800501e-15,3.0000000000000004,1.9984014443252818e-15" style="fill:rgb(78,22,229);stroke:black;stroke-width:0.05"></polygon>
      <polygon points="4.5,-0.866025403784441,3.999999999999999,-1.732050807568879,5.999999999999998,-1.7320508075688825" style="fill:rgb(78,22,229);stroke:black;stroke-width:0.05"></polygon>
      <polygon points="4.499999999999997,-2.5980762113533187,3.999999999999999,-1.732050807568879,2.999999999999996,-3.4641016151377535" style="fill:rgb(78,22,229);stroke:black;stroke-width:0.05"></polygon>
      <polygon points="1.499999999999995,-4.330127018922193,0.9999999999999978,-3.4641016151377535,-7.105427357601002e-15,-5.196152422706626" style="fill:rgb(78,22,229);stroke:black;stroke-width:0.05"></polygon>
      <polygon points="1.499999999999995,-4.330127018922193,1.9999999999999933,-5.196152422706632,2.999999999999996,-3.464101615137758" style="fill:rgb(78,22,229);stroke:black;stroke-width:0.05"></polygon>
      <polygon points="-1.7763568394002505e-15,-3.4641016151377535,-0.9999999999999978,-3.4641016151377535,0.0,-5.19615242270663" style="fill:rgb(78,22,229);stroke:black;stroke-width:0.05"></polygon>
      <polygon points="-1.4999999999999973,-4.330127018922187,-0.9999999999999978,-3.4641016151377535,0.0,-5.19615242270663" style="fill:rgb(188,22,229);stroke:black;stroke-width:0.05"></polygon>
      <polygon points="1.499999999999995,-4.330127018922193,1.9999999999999933,-5.196152422706632,-5.329070518200751e-15,-5.196152422706629" style="fill:rgb(188,22,229);stroke:black;stroke-width:0.05"></polygon>
      <polygon points="2.999999999999993,-5.196152422706634,1.9999999999999933,-5.196152422706632,2.999999999999996,-3.464101615137758" style="fill:rgb(188,22,229);stroke:black;stroke-width:0.05"></polygon>
      <polygon points="4.499999999999997,-2.5980762113533187,3.999999999999999,-1.732050807568879,5.999999999999998,-1.732050807568883" style="fill:rgb(188,22,229);stroke:black;stroke-width:0.05"></polygon>
      <polygon points="4.499999999999997,-2.5980762113533187,4.999999999999997,-3.4641016151377575,2.999999999999996,-3.4641016151377535" style="fill:rgb(188,22,229);stroke:black;stroke-width:0.05"></polygon>
      <polygon points="4.5,-0.866025403784441,5.000000000000001,-2.6645352591003757e-15,5.999999999999998,-1.7320508075688825" style="fill:rgb(188,22,229);stroke:black;stroke-width:0.05"></polygon>
      <polygon points="6.0000000000000036,-1.9984014443252818e-15,5.000000000000001,3.552713678800501e-15,6.000000000000002,1.7320508075688779" style="fill:rgb(188,22,229);stroke:black;stroke-width:0.05"></polygon>
      <polygon points="4.499999999999997,2.5980762113533187,4.999999999999997,3.4641016151377575,5.999999999999995,1.7320508075688776" style="fill:rgb(188,22,229);stroke:black;stroke-width:0.05"></polygon>
      <polygon points="4.499999999999996,4.330127018922195,4.999999999999997,3.4641016151377575,2.999999999999996,3.4641016151377535" style="fill:rgb(188,22,229);stroke:black;stroke-width:0.05"></polygon>
      <polygon points="2.999999999999993,5.196152422706634,1.9999999999999933,5.196152422706632,2.99999999999999,6.92820323027551" style="fill:rgb(188,22,229);stroke:black;stroke-width:0.05"></polygon>
      <polygon points="2.999999999999993,5.196152422706634,3.9999999999999925,5.196152422706636,2.999999999999996,3.464101615137758" style="fill:rgb(188,22,229);stroke:black;stroke-width:0.05"></polygon>
      <polygon points="1.4999999999999927,6.0621778264910695,1.9999999999999933,5.196152422706632,-5.329070518200751e-15,5.196152422706629" style="fill:rgb(188,22,229);stroke:black;stroke-width:0.05"></polygon>
      <polygon points="-1.499999999999995,4.330127018922193,-1.9999999999999933,5.196152422706632,5.329070518200751e-15,5.196152422706629" style="fill:rgb(188,22,229);stroke:black;stroke-width:0.05"></polygon>
      <polygon points="-2.999999999999993,5.196152422706634,-1.9999999999999933,5.196152422706632,-2.999999999999996,3.464101615137758" style="fill:rgb(188,22,229);stroke:black;stroke-width:0.05"></polygon>
      <polygon points="-4.499999999999997,2.5980762113533187,-3.999999999999999,1.732050807568879,-5.999999999999998,1.732050807568883" style="fill:rgb(188,22,229);stroke:black;stroke-width:0.05"></polygon>
      <polygon points="-4.499999999999997,2.5980762113533187,-4.999999999999997,3.4641016151377575,-2.999999999999996,3.4641016151377535" style="fill:rgb(188,22,229);stroke:black;stroke-width:0.05"></polygon>
      <polygon points="-4.5,0.866025403784441,-5.000000000000001,3.552713678800501e-15,-6.000000000000002,1.7320508075688779" style="fill:rgb(188,22,229);stroke:black;stroke-width:0.05"></polygon>
      <polygon points="-4.5,-0.866025403784441,-5.000000000000001,3.552713678800501e-15,-3.0000000000000004,1.9984014443252818e-15" style="fill:rgb(188,22,229);stroke:black;stroke-width:0.05"></polygon>
      <polygon points="-4.5,-0.866025403784441,-3.999999999999999,-1.732050807568879,-5.999999999999998,-1.7320508075688825" style="fill:rgb(188,22,229);stroke:black;stroke-width:0.05"></polygon>
      <polygon points="-4.499999999999997,-2.5980762113533187,-3.999999999999999,-1.732050807568879,-2.999999999999996,-3.4641016151377535" style="fill:rgb(188,22,229);stroke:black;stroke-width:0.05"></polygon>
      <polygon points="-1.499999999999995,-4.330127018922193,-1.9999999999999933,-5.196152422706632,-2.999999999999996,-3.464101615137758" style="fill:rgb(188,22,229);stroke:black;stroke-width:0.05"></polygon>
      <polygon points="-1.499999999999995,-4.330127018922193,-1.9999999999999933,-5.196152422706632,5.329070518200751e-15,-5.196152422706629" style="fill:rgb(229,22,160);stroke:black;stroke-width:0.05"></polygon>
      <polygon points="-2.999999999999993,-5.196152422706634,-1.9999999999999933,-5.196152422706632,-2.999999999999996,-3.464101615137758" style="fill:rgb(229,22,160);stroke:black;stroke-width:0.05"></polygon>
      <polygon points="-4.499999999999997,-2.5980762113533187,-3.999999999999999,-1.732050807568879,-5.999999999999998,-1.732050807568883" style="fill:rgb(229,22,160);stroke:black;stroke-width:0.05"></polygon>
      <polygon points="-4.499999999999997,-2.5980762113533187,-4.999999999999997,-3.4641016151377575,-2.999999999999996,-3.4641016151377535" style="fill:rgb(229,22,160);stroke:black;stroke-width:0.05"></polygon>
      <polygon points="-4.5,-0.866025403784441,-5.000000000000001,-2.6645352591003757e-15,-5.999999999999998,-1.7320508075688825" style="fill:rgb(229,22,160);stroke:black;stroke-width:0.05"></polygon>
      <polygon points="-6.0000000000000036,-1.9984014443252818e-15,-5.000000000000001,3.552713678800501e-15,-6.000000000000002,1.7320508075688779" style="fill:rgb(229,22,160);stroke:black;stroke-width:0.05"></polygon>
      <polygon points="-4.499999999999997,2.5980762113533187,-4.999999999999997,3.4641016151377575,-5.999999999999995,1.7320508075688776" style="fill:rgb(229,22,160);stroke:black;stroke-width:0.05"></polygon>
      <polygon points="-4.499999999999996,4.330127018922195,-4.999999999999997,3.4641016151377575,-2.999999999999996,3.4641016151377535" style="fill:rgb(229,22,160);stroke:black;stroke-width:0.05"></polygon>
      <polygon points="-2.999999999999993,5.196152422706634,-1.9999999999999933,5.196152422706632,-2.99999999999999,6.92820323027551" style="fill:rgb(229,22,160);stroke:black;stroke-width:0.05"></polygon>
      <polygon points="-2.999999999999993,5.196152422706634,-3.9999999999999925,5.196152422706636,-2.999999999999996,3.464101615137758" style="fill:rgb(229,22,160);stroke:black;stroke-width:0.05"></polygon>
      <polygon points="-1.4999999999999927,6.0621778264910695,-1.9999999999999933,5.196152422706632,5.329070518200751e-15,5.196152422706629" style="fill:rgb(229,22,160);stroke:black;stroke-width:0.05"></polygon>
      <polygon points="1.4999999999999927,6.0621778264910695,1.9999999999999933,5.196152422706632,2.999999999999991,6.92820323027551" style="fill:rgb(229,22,160);stroke:black;stroke-width:0.05"></polygon>
      <polygon points="1.4999999999999927,6.0621778264910695,0.9999999999999889,6.928203230275505,-5.329070518200751e-15,5.196152422706629" style="fill:rgb(229,22,160);stroke:black;stroke-width:0.05"></polygon>
      <polygon points="2.999999999999993,5.196152422706634,3.9999999999999925,5.196152422706636,2.99999999999999,6.92820323027551" style="fill:rgb(229,22,160);stroke:black;stroke-width:0.05"></polygon>
      <polygon points="4.499999999999994,4.330127018922198,3.9999999999999925,5.196152422706636,2.999999999999996,3.464101615137758" style="fill:rgb(229,22,160);stroke:black;stroke-width:0.05"></polygon>
      <polygon points="4.499999999999996,4.330127018922195,4.999999999999997,3.4641016151377575,5.999999999999995,5.196152422706637" style="fill:rgb(229,22,160);stroke:black;stroke-width:0.05"></polygon>
      <polygon points="5.999999999999997,3.4641016151377553,4.999999999999997,3.4641016151377575,5.999999999999995,1.7320508075688776" style="fill:rgb(229,22,160);stroke:black;stroke-width:0.05"></polygon>
      <polygon points="6.0000000000000036,-1.9984014443252818e-15,5.000000000000001,3.552713678800501e-15,6.000000000000002,-1.7320508075688779" style="fill:rgb(229,22,160);stroke:black;stroke-width:0.05"></polygon>
      <polygon points="6.0000000000000036,-1.9984014443252818e-15,7.000000000000006,3.1086244689504383e-15,6.000000000000002,1.7320508075688779" style="fill:rgb(229,22,160);stroke:black;stroke-width:0.05"></polygon>
      <polygon points="4.499999999999997,-2.5980762113533187,4.999999999999997,-3.4641016151377575,5.999999999999995,-1.7320508075688776" style="fill:rgb(229,22,160);stroke:black;stroke-width:0.05"></polygon>
      <polygon points="4.499999999999996,-4.330127018922195,4.999999999999997,-3.4641016151377575,2.999999999999996,-3.4641016151377535" style="fill:rgb(229,22,160);stroke:black;stroke-width:0.05"></polygon>
      <polygon points="2.999999999999993,-5.196152422706634,1.9999999999999933,-5.196152422706632,2.99999999999999,-6.92820323027551" style="fill:rgb(229,22,160);stroke:black;stroke-width:0.05"></polygon>
      <polygon points="2.999999999999993,-5.196152422706634,3.9999999999999925,-5.196152422706636,2.999999999999996,-3.464101615137758" style="fill:rgb(229,22,160);stroke:black;stroke-width:0.05"></polygon>
      <polygon points="1.4999999999999927,-6.0621778264910695,1.9999999999999933,-5.196152422706632,-5.329070518200751e-15,-5.196152422706629" style="fill:rgb(229,22,160);stroke:black;stroke-width:0.05"></polygon>
    <rect x="-7.000000000000006" y="-7.000000000000006" width="14.000000000000012" height="14.000000000000012" style="fill:none;stroke:black;stroke-width:.1"></rect>
</svg>

  